<?xml version="1.0" encoding="UTF-8"?><svg id="icon" xmlns="http://www.w3.org/2000/svg" viewBox="0 0 23.9782608696 23.9782608696"><defs><style>.cls-1{fill:#fbbf2f;}.cls-2{fill:none;}</style></defs><rect id="Rectangle_1371" class="cls-2" y="0" width="24" height="24"/><path class="cls-1" d="M21.151184082,10.1173095703c.7478027344-.6473999023,.3571777344-1.8751220703-.6250610352-1.9532470703l-5.1626586914-.4479980469c-.1473999023-.0128173828-.2756958008-.1059570313-.3335571289-.2421264648l-2.0155639648-4.7456054688c-.3794555664-.9040527344-1.6741943359-.9040527344-2.0537109375,0l-2.0154418945,4.7559814453c-.0578613281,.1365966797-.1866455078,.2299804688-.3344726563,.2424926758l-5.1506958008,.4372558594c-.9822387695,.078125-1.3840332031,1.305847168-.6362304688,1.9532470703l3.9139404297,3.3913574219c.1121826172,.0971679688,.161315918,.2485351563,.1276245117,.3930664063l-1.173034668,5.0332641602c-.2232055664,.9598999023,.8148193359,1.7188720703,1.6630859375,1.2054443359l4.4252929688-2.6658325195c.1271972656-.0765991211,.286315918-.0764770508,.4133911133,.0003662109l4.4263916016,2.6771850586c.8435668945,.5101928711,1.8854980469-.2457275391,1.6621704102-1.2059936523l-1.1731567383-5.0444946289c-.0335693359-.14453125,.0155639648-.2957763672,.1276855469-.3929443359l3.9140014648-3.391418457Zm-5.8895874023,2.7550048828c-.112121582,.0972900391-.1611938477,.2486572266-.1274414063,.3931884766l1.0612792969,4.542175293-4.0010986328-2.4197998047c-.0631103516-.0381469727-.1341552734-.0569458008-.2052001953-.0572509766V4.8957519531l-.0036010742-.0085449219,.001953125-.004699707,1.8147583008,4.2875366211c.0577392578,.1364135742,.1862182617,.2297973633,.3338012695,.2425537109l4.6488647461,.4033203125-3.5233154297,3.0563964844Z"/></svg>